<svg id="fi-rr-shop" xmlns="http://www.w3.org/2000/svg" width="8.96" height="8.96" viewBox="0 0 8.96 8.96">
  <path id="fi-rr-shop-2" data-name="fi-rr-shop" d="M8.96,3.733a.369.369,0,0,0-.009-.081L8.465,1.461A1.855,1.855,0,0,0,6.642,0H2.318A1.855,1.855,0,0,0,.5,1.461L.009,3.652A.369.369,0,0,0,0,3.733v.373a1.487,1.487,0,0,0,.373.987v2A1.869,1.869,0,0,0,2.24,8.96H6.72A1.869,1.869,0,0,0,8.586,7.093v-2a1.487,1.487,0,0,0,.373-.987ZM.747,3.774l.478-2.15A1.113,1.113,0,0,1,2.318.747h.3v1.12a.373.373,0,1,0,.747,0V.747H5.6v1.12a.373.373,0,1,0,.747,0V.747h.3a1.113,1.113,0,0,1,1.093.877l.478,2.15v.333a.747.747,0,0,1-.747.747H7.093a.747.747,0,0,1-.747-.747.373.373,0,1,0-.747,0,.747.747,0,0,1-.747.747H4.106a.747.747,0,0,1-.747-.747.373.373,0,0,0-.747,0,.747.747,0,0,1-.747.747H1.493a.747.747,0,0,1-.747-.747ZM6.72,8.213H2.24a1.12,1.12,0,0,1-1.12-1.12V5.552a1.485,1.485,0,0,0,.373.047h.373a1.49,1.49,0,0,0,1.12-.507,1.49,1.49,0,0,0,1.12.507h.747a1.49,1.49,0,0,0,1.12-.507,1.49,1.49,0,0,0,1.12.507h.373a1.485,1.485,0,0,0,.373-.047V7.093A1.12,1.12,0,0,1,6.72,8.213Z" transform="translate(0 0)" fill="#7e8aa1"/>
</svg>
