<svg xmlns="http://www.w3.org/2000/svg" width="23.775" height="23.798" viewBox="0 0 23.775 23.798">
  <g id="fi-rr-comment" style="isolation: isolate">
    <path id="Path_1532" data-name="Path 1532" d="M23.774,11.141A11.9,11.9,0,1,0,11.9,23.773h6.917a4.958,4.958,0,0,0,4.953-4.953Zm-1.981,7.68a2.972,2.972,0,0,1-2.972,2.972H11.9A9.946,9.946,0,0,1,4.5,18.481a9.823,9.823,0,0,1-2.453-7.74A9.948,9.948,0,0,1,10.62,2.062a10.465,10.465,0,0,1,1.288-.081,9.827,9.827,0,0,1,6.319,2.278,9.946,9.946,0,0,1,3.566,6.976Z" transform="translate(0.001 0.024)" fill="#7e8ba1"/>
    <path id="Path_1533" data-name="Path 1533" d="M7.991,8.981h3.962a.991.991,0,0,0,0-1.981H7.991a.991.991,0,1,0,0,1.981Z" transform="translate(-0.065 -0.042)" fill="#7e8ba1"/>
    <path id="Path_1534" data-name="Path 1534" d="M15.915,11H7.991a.991.991,0,1,0,0,1.981h7.925a.991.991,0,0,0,0-1.981Z" transform="translate(-0.065 -0.08)" fill="#7e8ba1"/>
    <path id="Path_1535" data-name="Path 1535" d="M15.915,15H7.991a.991.991,0,0,0,0,1.981h7.925a.991.991,0,0,0,0-1.981Z" transform="translate(-0.065 -0.118)" fill="#7e8ba1"/>
  </g>
</svg>
