<svg xmlns="http://www.w3.org/2000/svg" width="18" height="24" viewBox="0 0 18 24">
  <g id="Group_9841" data-name="Group 9841" transform="translate(-25)">
    <g id="fi-rr-user" transform="translate(25 0)">
      <path id="Path_4" data-name="Path 4" d="M12,12A6,6,0,1,0,6,6a6,6,0,0,0,6,6ZM12,2A4,4,0,1,1,8,6a4,4,0,0,1,4-4Z" transform="translate(-3 0)" fill="#7e8ba1"/>
      <path id="Path_5" data-name="Path 5" d="M12,14a9.01,9.01,0,0,0-9,9,1,1,0,1,0,2,0,7,7,0,1,1,14,0,1,1,0,0,0,2,0A9.01,9.01,0,0,0,12,14Z" transform="translate(-3 0)" fill="#7e8ba1"/>
    </g>
  </g>
</svg>
