<svg id="receipt" xmlns="http://www.w3.org/2000/svg" width="130.503" height="174.005" viewBox="0 0 130.503 174.005">
  <path id="Path_3" data-name="Path 3" d="M97.252,0h-58A36.294,36.294,0,0,0,3,36.251v130.5a7.25,7.25,0,0,0,11.339,5.981L29.608,162.3l15.269,10.433a7.25,7.25,0,0,0,8.193,0L68.295,162.3,83.52,172.735a7.25,7.25,0,0,0,8.2,0l15.225-10.426,15.225,10.418a7.25,7.25,0,0,0,11.332-5.974V36.251A36.294,36.294,0,0,0,97.252,0ZM119,152.978l-7.975-5.452a7.25,7.25,0,0,0-8.207,0L87.595,157.959,72.369,147.526a7.25,7.25,0,0,0-8.2,0L48.944,157.959,33.719,147.526a7.25,7.25,0,0,0-8.185,0L17.5,152.978V36.251A21.75,21.75,0,0,1,39.251,14.5h58A21.75,21.75,0,0,1,119,36.251Z" transform="translate(-3)"/>
  <rect id="Rectangle_4" data-name="Rectangle 4" width="72.502" height="14.5" transform="translate(29.001 56.797)"/>
  <rect id="Rectangle_5" data-name="Rectangle 5" width="58.001" height="14.5" transform="translate(29.001 85.797)"/>
</svg>
