<svg xmlns="http://www.w3.org/2000/svg" width="20" height="20" viewBox="0 0 20 20">
  <g id="Group_10073" data-name="Group 10073" transform="translate(-295.593 -385.688)">
    <path id="Path_1646" data-name="Path 1646" d="M312.593,398.688a3.99,3.99,0,0,1-3-1.357,3.988,3.988,0,0,1-3,1.357h-2a3.99,3.99,0,0,1-3-1.357,3.988,3.988,0,0,1-3,1.357h-1a3.974,3.974,0,0,1-1-.127v4.127a3,3,0,0,0,3,3h12a3,3,0,0,0,3-3v-4.127a3.962,3.962,0,0,1-1,.127Z"/>
    <path id="Path_1647" data-name="Path 1647" d="M311.385,385.688h-.792v3a1,1,0,0,1-2,0v-3h-6v3a1,1,0,0,1-2,0v-3H299.8a2.983,2.983,0,0,0-2.928,2.349l-1.28,5.76v.891a2,2,0,0,0,2,2h1a2,2,0,0,0,2-2,1,1,0,0,1,2,0,2,2,0,0,0,2,2h2a2,2,0,0,0,2-2,1,1,0,0,1,2,0,2,2,0,0,0,2,2h1a2,2,0,0,0,2-2V393.8l-1.28-5.76A2.982,2.982,0,0,0,311.385,385.688Z" />
  </g>
</svg>
